<svg xmlns="http://www.w3.org/2000/svg" width="32" height="32"><style></style><path id="BOOK 2" d="M31 26l-14 6h-1-1L1 26l-1-1V2a1 1 0 0 1 2-2l14 6 14-6h1l1 2v23l-1 1zM15 9L3 4v20l12 4V9zm14-5L18 9v19l11-4V4zm-9 7l5-3h1a1 1 0 0 1 1 3l-6 2v1a1 1 0 0 1-1-3zm0 5l5-2h1a1 1 0 0 1 1 2l-6 3a1 1 0 0 1-1-3zm0 6l5-3h1a1 1 0 0 1 1 3l-6 2v1a1 1 0 0 1-1-3zM6 8h1l5 3a2 2 0 0 1-1 2l-6-2a2 2 0 0 1 1-3zm0 6h1l5 2a2 2 0 0 1 0 3h-1l-6-3a2 2 0 0 1 1-2zm0 5h1l5 3a2 2 0 0 1-1 2l-6-2a2 2 0 0 1 1-3z" fill="#95e1d3"/></svg>